<svg xmlns="http://www.w3.org/2000/svg" width="512" height="512" viewBox="0 0 512 512">
  <defs>
    <linearGradient id="gradient" x1="0%" y1="0%" x2="100%" y2="100%">
      <stop offset="0%" style="stop-color:#D4AF37"/>
      <stop offset="100%" style="stop-color:#FFD700"/>
    </linearGradient>
  </defs>
  <rect width="512" height="512" rx="128" fill="#0A0A0A"/>
  <path d="M384 192v32c0 70.7-57.3 128-128 128h-32v32c0 17.7 14.3 32 32 32h160c17.7 0 32-14.3 32-32V224c0-17.7-14.3-32-32-32h-32zM96 192v32c0 70.7 57.3 128 128 128h32v32c0 17.7-14.3 32-32 32H64c-17.7 0-32-14.3-32-32V224c0-17.7 14.3-32 32-32h32z" fill="url(#gradient)"/>
</svg>